# xmcd
#
# Track frame offsets:
#	150
#	13403
#	28655
#	43725
#	60223
#	71621
#	86218
#	102690
#	116357
#	131144
#	145714
#	160045
#	175136
#	190080
#
# Disc length: 2737
#
# Revision: 1
# Processed by: cddbd v1.5.1PL0 Copyright (c) Steve Scherf et al.
# Submitted via: EasyCDDAExtractor 4.5.0.1
# Normalized: r0:TRMNUM
#
DISCID=c10aaf0e
DTITLE=Traveling Wilbury's - Volume 4 (Bootleg)
DYEAR=1990
DGENRE=R&B
TTITLE0=Wilbury Twist
TTITLE1=New Blue Moon
TTITLE2=7 Deadly Sins
TTITLE3=Cool Dry Place
TTITLE4=Runaway (Del Shannon)
TTITLE5=Maxine
TTITLE6=Inside Out
TTITLE7=Where Were You Last Night
TTITLE8=You Took My Breath Away
TTITLE9=Poor House
TTITLE10=If You Belonged To Me
TTITLE11=She's My Baby
TTITLE12=Devils Been Busy
TTITLE13=Like A Ship
EXTD=YEAR: 1990 ID3G: 14\n
EXTT0=
EXTT1=
EXTT2=
EXTT3=
EXTT4=
EXTT5=
EXTT6=
EXTT7=
EXTT8=
EXTT9=
EXTT10=
EXTT11=
EXTT12=
EXTT13=
PLAYORDER=
